<?xml version="1.0" standalone="no"?>
<!DOCTYPE svg PUBLIC "-//W3C//DTD SVG 1.1//EN" "http://www.w3.org/Graphics/SVG/1.1/DTD/svg11.dtd">
<svg xmlns="http://www.w3.org/2000/svg">
<metadata>Copyright (C) 2018 by original authors @ fontello.com</metadata>
<defs>
<font id="zeekappfont" horiz-adv-x="1000" >
<font-face font-family="zeekappfont" font-weight="400" font-stretch="normal" units-per-em="1000" ascent="850" descent="-150" />
<missing-glyph horiz-adv-x="1000" />
<glyph glyph-name="font_año" unicode="&#xe800;" d="M931 719v35c0 15-12 27-27 27h-807c-15 0-27-12-27-27v-140h0v-575c0-66 54-119 119-119h624c65 0 119 53 119 119v680h-1z m-56-680c0-34-28-62-62-62h-624c-34 0-62 28-62 62v575h748v-575z m-640 201c0-26 11-47 33-65 22-18 53-27 92-27 39 0 70 9 94 28 23 19 35 43 35 72 0 19-5 36-16 50-11 14-26 25-46 32v1c33 17 49 41 49 73 0 23-10 43-30 60-19 16-47 24-82 24-34 0-62-8-85-26-22-17-33-39-33-67 0-31 16-55 48-72v-1c-40-17-59-45-59-82z m97 185c7 7 17 11 30 11 13 0 23-4 30-12 7-8 11-17 11-29 0-9-3-18-9-25-7-8-15-13-25-16-32 9-48 24-48 44 0 11 3 20 11 27z m3-138c11 6 18 8 21 8 5 0 13-2 24-8 11-6 19-12 23-19 4-8 7-16 7-25 0-12-5-22-13-29-9-8-20-12-34-12-14 0-26 5-35 14-9 9-13 20-13 32 0 16 7 29 20 39z m414 103h18c2 0 3 1 5 2l24 36c5 7 8 15 8 24 0 19-14 29-30 29-17 0-29-12-29-29 0-8 2-16 8-21 2-2 2-5 1-7l-10-26c-2-4 1-8 5-8z m-232-229c23-9 50-13 79-13 44 0 79 11 105 34s39 49 39 82c0 35-12 61-35 80-24 18-56 27-95 27 0 0 0 0 0 0-12 0-21 10-20 22l2 9c1 10 9 17 19 17h96c11 0 19 9 19 19v25c0 11-8 20-19 20h-150c-10 0-18-8-19-17l-17-132c-1-12 9-23 21-22 8 1 16 1 23 1 63 0 95-18 95-55 0-15-7-27-19-36-13-9-29-13-48-13-20 0-39 3-58 9-10 4-22-3-25-14l-5-20c-2-10 3-20 12-23z" horiz-adv-x="1000" />

<glyph glyph-name="font_ayuda" unicode="&#xe801;" d="M895 518c-22 51-53 97-92 137-40 39-86 70-137 92-53 22-110 34-168 34-58 0-114-12-167-34-52-22-98-53-137-92-40-40-71-86-93-137-22-53-33-110-33-168 0-58 11-114 33-168 22-51 53-97 93-136 39-40 85-71 137-93 53-22 109-34 167-34 58 0 115 12 168 34 51 22 97 53 137 93 39 39 70 85 92 136 22 54 34 110 34 168 0 58-12 115-34 168z m-397-511c-189 0-343 154-343 343 0 189 154 343 343 343 189 0 343-154 343-343 0-189-154-343-343-343z m6 610c104 0 167-47 167-133 0-110-113-128-113-212h-113c0 113 86 122 87 187 0 21-17 38-38 39-24 1-39-7-47-27-9-22-30-35-54-35h0c-41 0-69 41-54 79 24 65 82 102 165 102z m66-463c0-42-29-71-71-71-41 0-70 29-70 71 0 41 29 69 70 69 42 0 71-28 71-69z" horiz-adv-x="1000" />

<glyph glyph-name="font_carga" unicode="&#xe802;" d="M916 608l-141 125c-7 8-18 13-30 13h-229l24-146h380c-1 3-2 6-4 8z m-375-40v-649h339c23 0 41 19 41 41v608h-380z m-321 164l-132-124c-3-2-4-5-5-8h377l24 146h-234c-11 0-23-5-30-14z m-141-772c0-22 18-41 41-41h339v649h-376l-4-608z" horiz-adv-x="1000" />

<glyph glyph-name="font_cerrar-o-cancelar" unicode="&#xe803;" d="M729 192c10-10 10-26 0-37l-34-34c-10-10-27-10-37 0l-158 158-158-158c-10-10-26-10-37 0l-34 34c-10 11-10 27 0 37l158 158-158 158c-10 10-10 27 0 37l34 34c11 10 27 10 37 0l158-158 158 158c10 10 27 10 37 0l34-34c10-10 10-27 0-37l-158-158 158-158z" horiz-adv-x="1000" />

<glyph glyph-name="font_cerrar-sesion" unicode="&#xe804;" d="M923 370l-239 239c-11 11-29 11-40 0l-36-36c-11-11-11-29 0-40l132-133h-379c-15 0-27-11-27-26v-48c0-15 12-26 27-26h379l-132-133c-11-11-11-29 0-40l36-36c11-11 29-11 40 0l239 239c11 11 11 29 0 40z m-158-287c-21 0-39-18-39-39v-33c0-8-6-15-14-15h-389c-8 0-15 7-15 15v676c0 8 7 15 15 15h389c8 0 14-7 14-15v-33c0-22 18-39 39-39s39 17 39 39v33c0 51-41 93-92 93h-389c-51 0-93-42-93-93v-676c0-51 42-93 93-93h389c51 0 92 42 92 93v33c0 21-17 39-39 39z" horiz-adv-x="1000" />

<glyph glyph-name="font_chofer" unicode="&#xe805;" d="M356 484c1-4 4-7 7-8 4 0 7 0 10 3 30 27 78 43 128 43 55 0 104-18 133-48 2-1 5-2 7 0 2 2 7 14 10 20 0 0 0 0 0 0v50c0 48-39 87-86 87h-129c-48 0-87-39-87-87v-44c1-3 3-7 4-9 1-3 2-6 3-7z m574-498c-1 15-8 29-19 40-43 41-148 131-274 159-21 5-37 23-38 45 0 1 0 2 0 3 0 19 9 37 20 52 21 27 32 62 32 100v85c-1-2-3-4-4-5-3-2-6-3-9-3-4 0-8 2-11 5-27 28-74 45-126 45-48 0-93-16-121-41-5-5-12-6-19-5-5 2-9 4-12 8v-89c0-38 11-73 32-100 12-15 20-33 21-52 0-1 0-2 0-3-2-22-18-40-39-45-126-28-231-118-273-159-12-11-19-25-20-40-3-39 28-68 65-68h730c38 0 68 29 65 68z" horiz-adv-x="1000" />

<glyph glyph-name="font_color" unicode="&#xe806;" d="M805 653c-78 79-186 128-305 128-236 0-431-195-431-431 0-118 49-226 127-304 111-111 302-31 303 127l0 0c1 98 80 177 178 177h0c158 0 239 191 128 303z m-547-154c0 0-1-1-2-1-14-1-28 4-38 13-12 11-18 27-16 43 3 26 28 46 54 43 2 0 3 0 5-1 16-3 31-16 37-32 10-28-9-61-40-65z m184 136c-5-29-39-48-67-36-1 0-2 1-2 1-13 6-22 17-26 30-5 15-2 33 8 45 16 21 47 26 69 10 1-1 2-2 3-3 13-12 19-30 15-47z m161-13c-20-22-58-21-76 4-1 0-1 1-2 2-7 11-10 26-7 39 4 15 15 29 30 35 24 9 54-3 64-27 1-2 1-3 2-5 5-16 1-35-11-48z m166-53c0-1 0-3-1-4-4-17-17-31-33-36-29-9-61 12-64 42 0 1 0 2-1 3 0 13 5 27 15 37 11 11 27 17 43 14 26-4 45-29 41-56z" horiz-adv-x="1000" />

<glyph glyph-name="font_configuración" unicode="&#xe807;" d="M332 152v514c0 26-21 47-47 47h-6c-26 0-47-21-47-47v-514c-22-16-35-41-35-69 0-47 38-86 85-86s85 39 85 86c0 28-13 53-35 69z m-50-120c-28 0-50 23-50 51s22 50 50 50 50-23 50-50-22-51-50-51z m434 672c-47 0-85-38-85-85 0-29 13-54 35-69v-512c0-28 22-51 50-51h0c28 0 50 23 50 51v512c22 15 35 40 35 69 0 47-38 85-85 85z m0-136c-28 0-50 23-50 51s22 50 50 50 50-22 50-50-22-51-50-51z m-167-149v243c0 28-22 51-50 51s-50-23-50-51v-243c-22-16-35-41-35-69s13-53 35-69v-243c0-28 22-51 50-51s50 23 50 51v243c22 16 35 41 35 69s-13 53-35 69z m-50-119c-28 0-50 22-50 50s22 50 50 50 50-22 50-50-22-50-50-50z" horiz-adv-x="1000" />

<glyph glyph-name="font_descripcion" unicode="&#xe808;" d="M715 646h-138c8 13 12 29 12 46 0 49-40 89-89 89s-89-40-89-89c0-17 4-33 12-46h-138c-44 0-81-36-81-81v-594c0-44 36-81 81-81h430c45 0 81 37 81 81v594c0 45-36 81-81 81z m-215 78c18 0 33-14 33-32s-15-33-33-33-32 15-32 33 14 32 32 32z m239-753c0-13-11-24-24-24h-430c-13 0-24 11-24 24v594c0 13 11 24 24 24h430c13 0 24-11 24-24v-594z m-406 514c-13 0-24-11-24-24s11-24 24-24 25 11 25 24-11 24-25 24z m0-111c-13 0-24-11-24-24s11-24 24-24 25 11 25 24-11 24-25 24z m0-111c-13 0-24-11-24-24s11-24 24-24 25 11 25 24-11 24-25 24z m0-111c-13 0-24-11-24-24s11-24 24-24 25 11 25 24-11 24-25 24z m334 332h-256c-13 0-23-10-23-23s10-23 23-23h256c13 0 23 10 23 23s-10 23-23 23z m0-111h-256c-13 0-23-10-23-23s10-23 23-23h256c13 0 23 10 23 23s-10 23-23 23z m0-111h-256c-13 0-23-10-23-23s10-23 23-23h256c13 0 23 10 23 23s-10 23-23 23z m0-117h-256c-13 0-23-11-23-24s10-23 23-23h256c13 0 23 10 23 23s-10 24-23 24z" horiz-adv-x="1000" />

<glyph glyph-name="font_detalles" unicode="&#xe809;" d="M504 406c-31 0-56-25-56-56 0-31 25-56 56-56 32 0 57 25 57 56 0 31-25 56-57 56z m163 0c-31 0-57-25-57-56 0-31 26-56 57-56s56 25 56 56c0 31-25 56-56 56z m-334 0c-31 0-56-25-56-56 0-31 25-56 56-56s57 25 57 56c0 31-26 56-57 56z" horiz-adv-x="1000" />

<glyph glyph-name="font_economia-gasolina" unicode="&#xe80a;" d="M741 349h-47c-15 0-27-12-27-27v-402h100v402c0 15-12 27-26 27z m-434-271h-48c-14 0-26-12-26-27v-132h100v132c0 15-12 27-26 27z m140 91h-48c-14 0-26-12-26-27v-223h100v223c0 15-12 27-26 27z m147 90h-48c-14 0-26-12-26-26v-313h100v313c0 14-12 26-26 26z m99 281l20-91c1-8 10-13 18-12l27 6c8 2 13 10 12 18l-39 179c-1 8-9 13-17 12l-179-39c-8-1-14-9-12-18l6-27c2-8 10-13 18-12l91 20c-110-170-257-284-437-339-25-8-49-14-72-18-15-3-26-17-26-32 0-21 19-37 40-33 23 5 48 11 74 19 139 42 328 139 476 367z" horiz-adv-x="1000" />

<glyph glyph-name="font_eventos" unicode="&#xe80b;" d="M795 95h-8c-17 46-19 97-17 143 3 52 16 101 20 149 3 37 1 74-15 113-27 68-83 130-150 159-22 10-47 17-72 22 7 10 12 23 12 36 0 35-29 64-64 64-35 0-63-29-63-64 0-13 4-26 11-36-64-12-123-45-168-95-57-63-78-145-66-228 10-68 24-134 14-203-3-20-7-40-14-60h-9c-25 2-45-18-45-42 0-25 20-45 45-47h273v-35c-7-5-9-12-9-20 0-17 14-32 31-32 18 0 32 15 32 32 0 8-3 15-7 20v35h269c24 2 44 22 44 47 0 24-20 44-44 42z m-294 653c17 0 31-14 31-31s-14-31-31-31c-17 0-31 14-31 31s14 31 31 31z" horiz-adv-x="1000" />

<glyph glyph-name="font_geocercas" unicode="&#xe80c;" d="M899 72v556c19 16 32 40 32 67 0 47-39 85-86 85-32 0-60-18-74-44h-541c-15 27-43 45-75 45-47 0-86-39-86-86 0-26 12-50 31-66h-1v-559c-18-16-30-39-30-65 0-47 39-85 86-85 32 0 59 17 74 43h542c15-26 42-43 74-43 47 0 86 38 86 85 0 27-13 51-32 67z m-54 673c28 0 51-22 51-50s-23-50-51-50-50 22-50 50 22 50 50 50z m-690 1c28 0 50-23 50-51s-22-50-50-50-51 22-51 50 23 51 51 51z m0-791c-28 0-51 22-51 50s23 51 51 51 50-23 50-51-22-50-50-50z m606 65h-522c-7 40-41 70-83 71v519c41 0 75 30 83 69h522c7-38 41-68 81-69v-520c-41-1-74-31-81-70z m84-65c-28 0-50 22-50 50s22 51 50 51 51-23 51-51-23-50-51-50z" horiz-adv-x="1000" />

<glyph glyph-name="font_georeferencias" unicode="&#xe80d;" d="M692 529c0 15-11 26-25 26-15 0-26-11-26-26 0-14 11-26 26-26 14 0 25 12 25 26z m16-186c-48 51-112 79-182 79-138 0-251-113-251-251s113-252 251-252c138 0 251 113 251 252 0 64-25 126-69 172v0z m26-172c0-115-93-209-208-209-115 0-208 94-208 209 0 115 93 208 208 208 58 0 112-23 151-65 37-39 57-90 57-143z m111 536c-98 98-258 98-356 0-39-39-63-89-70-140-2 2-4 5-6 7-37 36-85 56-137 56 0 0 0 0 0 0-52 0-100-20-137-57-37-36-57-85-57-136 0-52 20-101 57-137 33-34 76-53 123-56 4 14 9 28 15 42 0 0-1 0-1 0-41 0-79 15-107 44-29 28-44 66-44 106 0 41 16 79 44 107 29 29 67 45 107 45 0 0 0 0 0 0 40 0 78-16 107-44 17-18 30-40 37-63 1-6 3-13 5-19 1-10 2-20 2-30 0-2-1-3-1-5 4 1 9 3 13 4 6 2 12 4 18 6 1 0 2 0 2 0 8 2 15 3 23 5-36 76-23 169 40 232 40 40 93 60 145 60 52 0 105-20 144-60 41-40 62-94 60-150-2-53-23-102-60-139-20-20-44-35-69-45 10-13 19-26 26-40 28 12 54 29 76 52 46 45 72 106 74 170 2 70-24 136-73 185z m-319-510c-15 0-26-12-26-26 0-15 11-26 26-26 14 0 26 11 26 26 0 14-12 26-26 26z m-250 259c-11 0-20-9-20-19s9-20 20-20c11 0 19 9 19 20s-8 19-19 19z" horiz-adv-x="1000" />

<glyph glyph-name="font_georutas" unicode="&#xe80e;" d="M682 168c-29 0-54-14-70-36h-246c-46 0-84 38-84 84s38 85 84 85h266c101 0 184 82 184 183s-83 184-184 184h-245v-1c-16 22-41 37-70 37-48 0-86-38-86-85s38-86 86-86c29 0 54 15 70 37v-1h245c47 0 85-38 85-85s-38-84-85-84h-266c-101 0-183-83-183-184s82-183 183-183h246c16-22 41-36 70-36 47 0 85 39 85 86s-38 85-85 85z m-365 400c-28 0-51 23-51 51s23 50 51 50 50-23 50-50-23-51-50-51z m365-536c-28 0-50 23-50 51s22 50 50 50 50-23 50-50-22-51-50-51z" horiz-adv-x="1000" />

<glyph glyph-name="font_grupos" unicode="&#xe80f;" d="M374 548c-45 70-140 91-210 45-71-46-91-140-46-210l128-198c0 0 0 0 0 0 0 0 1 0 1 0l127 198c32 48 34 113 0 165z m-128-147c-34 0-62 28-62 62s28 62 62 62 63-28 63-62c0-34-28-62-63-62z m637 147c-46 70-141 91-211 45-71-46-91-140-46-210l128-198c0 0 0 0 0 0 0 0 1 0 1 0l128 198c31 48 33 113 0 165z m-129-147c-34 0-62 28-62 62s28 62 62 62c35 0 63-28 63-62s-28-62-63-62z m-126-119c-46 71-140 91-211 45-70-45-91-139-45-210l128-197c0 0 0-1 0-1 0 0 0 0 0 1l128 197c32 49 34 113 0 165z m-128-147c-34 0-62 28-62 63s28 62 62 62 62-28 62-62-28-63-62-63z" horiz-adv-x="1000" />

<glyph glyph-name="font_historial" unicode="&#xe810;" d="M132 197l71 122c10 17 2 31-18 31h-27c0 0 0 0 0 0 0 189 154 343 343 343 92 0 178-35 243-100 17-17 44-17 62 0 17 17 17 45-1 62-39 39-85 70-136 92-53 22-110 34-168 34-58 0-114-12-167-34-51-22-97-53-137-92-40-40-71-86-92-137-23-53-34-110-34-168 0 0 0 0 0 0h-26c-20 0-28-14-18-31l71-122c9-16 25-16 34 0z m367 341c-14 0-25-11-25-25v-145c-3-4-4-9-5-13l-176-176c-9-9-9-25 0-34 5-5 11-7 18-7 6 0 12 2 17 7l175 175c15 3 26 15 26 30 0 7-2 13-6 18v145c0 14-11 25-24 25z m398-20c-16 37-37 72-63 104 1-15-4-30-15-41-15-15-36-19-54-13 49-59 78-135 78-218 0-189-154-343-343-343-152 0-277 91-322 228l-42-72c-5-8-11-13-18-12 21-42 44-72 78-105 39-40 85-71 136-93 54-22 110-34 168-34 58 0 115 12 168 34 51 22 97 53 137 93 39 39 70 85 92 136 22 54 34 110 34 168 0 58-12 115-34 168z" horiz-adv-x="1000" />

<glyph glyph-name="font_limpiar-mapa" unicode="&#xe811;" d="M793 489l-32 32 38 33c5 6 8 13 8 20 0 7-3 14-8 19-11 12-30 12-41 0l-33-36-31 32c-29 29-73 34-107 17-2-1-3-2-4-2-6-4-11-8-16-12-10-8-20-17-23-26-6-15-73-118-155-150-5-1-9-5-11-10-2-6-1-12 3-16l45-45c2-3 6-4 9-4h0c10 0 22 1 34 3-4-2-8-4-12-5-4-2-7-6-8-10 0-4 1-8 4-11l54-54c3-4 7-5 11-4 0-1 0-1 0-2 0-3 2-7 4-9l49-49c3-3 7-5 11-5 1 0 2 0 3 0 22 5 115 59 186 140 1 1 6 7 10 12 3 2 5 4 6 6l3 3c39 35 40 96 3 133z m-209-272l-41 41c17 16 28 35 33 43 2 5 1 11-4 14-4 3-11 3-14-2-9-10-23-21-40-31l-42 42c29 15 50 34 60 45 5 4 5 11 1 16-4 4-11 5-16 1-23-17-58-23-83-24l-36 36c81 36 145 128 159 156l200-199c-3-3-5-6-6-7-65-73-149-124-171-131z m-220 1l26-25 36-7-25-27-6-36-27 25-36 7 25 27 7 36z m35 90l20-19 27-5-19-20-5-27-20 19-27 5 19 20 5 27z m-126 7l28-27 38-7-27-28-7-38-28 27-38 7 27 28 7 38z m638 429c-20 20-48 28-76 23l-218-42-243 51c-27 6-55 6-81 0l-188-39c-37-8-63-39-63-74v-651c0-22 9-44 26-58 20-17 46-24 72-19l193 41 266-56c17-3 34-4 51 0l218 44c37 7 64 39 64 74v652c0 20-7 39-21 54z m-36-706c0-10-8-19-19-21l-231-47 0 180c0 15-11 28-26 29-17 2-31-11-31-28v-169l-206 43v67c0 16-13 28-29 28h0c-15 0-28-12-28-28v-67l-177-37c-10-2-17 2-20 4-4 3-9 8-9 17v654c0 10 7 19 18 21l188 40v-336c0-16 13-29 28-29h0c16 0 29 13 29 29v336l206-43 0-22c0-15 11-28 26-30 16-1 31 12 31 29v14l222 42c9 2 16-2 19-4 4-3 9-8 9-18v-654z" horiz-adv-x="1000" />

<glyph glyph-name="font_lista-de-eventos" unicode="&#xe812;" d="M716 517h-271c-27 0-49 22-49 49v0c0 28 22 50 49 50h271c28 0 50-22 50-50v0c0-27-22-49-50-49z m-383 49v0c0 28-22 50-49 50h0c-27 0-50-22-50-50v0c0-27 23-49 50-49h0c27 0 49 22 49 49z m0-213v0c0 27-22 49-49 49h0c-27 0-50-22-50-49v0c0-28 23-50 50-50h0c27 0 49 22 49 50z m0-219v0c0 27-22 49-49 49h0c-27 0-50-22-50-49v0c0-27 23-50 50-50h0c27 0 49 23 49 50z m433 219v0c0 27-22 49-50 49h-271c-27 0-49-22-49-49v0c0-28 22-50 49-50h271c28 0 50 22 50 50z m0-219v0c0 27-22 49-50 49h-271c-27 0-49-22-49-49v0c0-27 22-50 49-50h271c28 0 50 23 50 50z" horiz-adv-x="1000" />

<glyph glyph-name="font_marca" unicode="&#xe813;" d="M931 81l-31 553c-4 69-62 124-131 124h-537c-70 0-128-55-132-124l-31-553c-2-37 11-71 36-98s59-41 95-41h600c36 0 70 15 95 41s38 61 36 98z m-89 550l31-553c0-5 0-9-1-14 0 6-2 11-4 17l-249 592c-4 11-11 20-20 27h170c38 0 71-30 73-69z m-409-277h0c23 59 106 59 129 0v0c17-45-16-94-65-94h0c-49 0-82 49-64 94z m174-240c29 0 54-18 65-44l15-41c5-12 12-21 21-29h-424c9 7 16 17 21 28l16 42c11 26 36 44 64 44l222 0z m-480-36l31 553c2 39 35 69 74 69h175c-9-7-16-16-20-26l-254-593c-3-6-4-11-5-17-1 5-1 9-1 14z" horiz-adv-x="1000" />

<glyph glyph-name="font_maximizar" unicode="&#xe814;" d="M806 781h-610c-70 0-126-56-126-126v-610c0-70 56-126 126-126h610c70 0 126 56 126 126v610c0 70-56 126-126 126z m27-736c0-15-12-27-27-27h-610c-15 0-27 12-27 27v610c0 15 12 27 27 27h610c15 0 27-12 27-27v-610z m-83 572l-230 0c-10 0-19-8-19-19v-35c0-10 9-19 19-19h127l-230-230c-7-7-7-19 0-25l23-24c7-7 18-7 25 0l231 231v-127c0-10 8-19 19-19h35c10 0 19 8 19 19v230c0 10-9 18-19 18z" horiz-adv-x="1000" />

<glyph glyph-name="font_menu" unicode="&#xe815;" d="M721 517h-437c-27 0-50 22-50 49v0c0 28 23 50 50 50h437c28 0 50-22 50-50v0c0-27-22-49-50-49z m50-164v0c0 27-22 49-50 49h-437c-27 0-50-22-50-49v0c0-28 23-50 50-50h437c28 0 50 22 50 50z m0-219v0c0 27-22 49-50 49h-437c-27 0-50-22-50-49v0c0-27 23-50 50-50h437c28 0 50 23 50 50z" horiz-adv-x="1000" />

<glyph glyph-name="font_minimizar" unicode="&#xe816;" d="M806 781h-610c-70 0-126-56-126-126v-610c0-70 56-126 126-126h610c70 0 126 56 126 126v610c0 70-56 126-126 126z m27-736c0-15-12-27-27-27h-610c-15 0-27 12-27 27v610c0 15 12 27 27 27h610c15 0 27-12 27-27v-610z m-271 390c-7 7-19 7-26 0l-230-231v127c0 11-9 19-19 19h-35c-11 0-19-8-19-19v-230c0-10 8-18 18-18h230c11 0 19 8 19 19v35c0 10-8 19-19 19l-127 0 231 231c7 6 7 18 0 25l-23 23z" horiz-adv-x="1000" />

<glyph glyph-name="font_notificaciones-push" unicode="&#xe817;" d="M931 648c0 73-59 132-132 132-47 0-89-24-112-61h-517c-55 0-101-46-101-101v-598c0-56 46-101 101-101h572c55 0 100 45 100 101v504c52 18 89 67 89 124z m-189-672h-572c-24 0-44 19-44 44v598c0 24 20 44 44 44h497c0-5 0-9 0-14 0-68 52-124 118-131v-497c0-25-19-44-43-44z" horiz-adv-x="1000" />

<glyph glyph-name="font_num-serie" unicode="&#xe818;" d="M818 541h-636c-62 0-113-50-113-112v-158c0-62 51-112 113-112h636c62 0 113 50 113 112v158c0 62-51 112-113 112z m64-270c0-35-29-64-64-64h-636c-35 0-64 29-64 64v158c0 35 29 64 64 64h636c35 0 64-29 64-64v-158z m-570 71c-1 3-1 6 0 9l28 75c1 2 1 3 1 4 0 4-2 6-7 6h-11c-2-1-3-4-5-10l-11-27c-2-6-4-8-6-8-2 0-4 2-6 8l-11 27c-2 6-4 10-6 10h-12c-3 0-5-2-5-5 0-2 1-3 1-5l27-75c1-3 1-6 0-9l-27-76c0-2-1-3-1-4 0-3 2-5 5-5h12c2 0 4 3 6 9l12 31c1 3 2 4 5 4 2 0 4-1 5-4l12-31c2-6 4-9 6-9h10c5 0 7 2 7 5 0 1 0 2-1 4l-28 76z m101 0c-1 3-1 6 0 9l28 75c0 2 0 3 0 4 0 4-2 6-6 6h-12c-1-1-3-4-5-10l-11-27c-2-6-4-8-5-8-3 0-5 2-6 8l-11 27c-2 6-4 10-7 10h-11c-4 0-5-2-5-5 0-2 0-3 1-5l27-75c1-3 1-6 0-9l-27-76c-1-2-1-3-1-4 0-3 1-5 5-5h11c2 0 5 3 7 9l11 31c1 3 3 4 6 4 2 0 3-1 4-4l12-31c2-6 4-9 6-9h11c4 0 7 2 7 5 0 1-1 2-1 4l-28 76z m-201 0c-1 3-1 6 0 9l28 75c0 2 1 3 1 4 0 4-2 6-7 6h-12c-1-1-3-4-5-10l-11-27c-2-6-3-8-5-8-2 0-4 2-6 8l-11 27c-2 6-4 10-6 10h-12c-3 0-5-2-5-5 0-2 0-3 1-5l27-75c1-3 1-6 0-9l-27-76c-1-2-1-3-1-4 0-3 2-5 5-5h12c2 0 4 3 6 9l11 31c1 3 3 4 6 4 2 0 4-1 5-4l11-31c2-6 5-9 7-9h10c5 0 7 2 7 5 0 1 0 2-1 4l-28 76z m402 0c-1 3-1 6 0 9l28 75c0 2 1 3 1 4 0 4-3 6-7 6h-12c-1-1-3-4-5-10l-11-27c-2-6-3-8-5-8-3 0-5 2-6 8l-11 27c-2 6-4 10-7 10h-11c-4 0-5-2-5-5 0-2 0-3 1-5l27-75c1-3 1-6 0-9l-27-76c-1-2-1-3-1-4 0-3 1-5 5-5h12c2 0 4 3 6 9l11 31c1 3 3 4 6 4 2 0 3-1 4-4l12-31c2-6 4-9 6-9h11c5 0 7 2 7 5 0 1-1 2-1 4l-28 76z m201 0c-2 3-2 6 0 9l27 75c1 2 1 3 1 4 0 4-2 6-6 6h-12c-2-1-3-4-5-10l-11-27c-2-6-4-8-6-8-2 0-4 2-5 8l-11 27c-2 6-5 10-7 10h-11c-4 0-5-2-5-5 0-2 0-3 0-5l27-75c2-3 2-6 1-9l-28-76c0-2-1-3-1-4 0-3 2-5 5-5h12c2 0 4 3 7 9l11 31c1 3 3 4 5 4 3 0 4-1 5-4l12-31c2-6 4-9 6-9h11c4 0 7 2 7 5 0 1-1 2-2 4l-27 76z m-306 24h-17c-7 0-10-2-10-7l0-13c0-6 3-9 9-9h17c7 0 10 3 10 8v13c0 6-3 8-9 8z m205-24c-1 3-1 6 0 9l28 75c1 2 1 3 1 4 0 4-2 6-7 6h-12c-1-1-3-4-5-10l-11-27c-1-6-3-8-5-8-2 0-4 2-6 8l-11 27c-2 6-4 10-6 10h-12c-3 0-5-2-5-5 0-2 0-3 1-5l27-75c1-3 1-6 0-9l-27-76c-1-2-1-3-1-4 0-3 2-5 5-5h12c2 0 4 3 6 9l11 31c1 3 3 4 6 4 2 0 4-1 5-4l11-31c3-6 5-9 7-9h10c5 0 7 2 7 5 0 1 0 2-1 4l-28 76z" horiz-adv-x="1000" />

<glyph glyph-name="font_placas" unicode="&#xe819;" d="M850 618h-700c-45 0-81-36-81-80v-376c0-44 36-80 81-80h700c45 0 81 36 81 80v376c0 44-36 80-81 80z m24-456c0-13-11-24-24-24h-700c-13 0-24 11-24 24v300h748v-300z m0 357h-748v19c0 13 11 24 24 24h700c13 0 24-11 24-24v-19z m-662-283h10c3 1 5 2 5 5l1 8c1 8 3 11 7 12l10 0c4-1 6-5 7-13 0-6 1-10 5-12h10c3 1 5 4 5 8l-23 141c0 2-2 4-4 6h-12c-2-2-3-4-4-6l-22-142c0-3 2-5 5-7z m21 58l2 13c0 3 2 5 5 5 2 0 4-2 4-6l3-19c0-6-1-8-3-8h-10c-2 0-2 3-2 8l1 7z m409-50c-1-2-1-3-1-4 0-2 1-4 4-4h10c2 0 4 3 6 8l9 27c1 2 3 3 5 3 2 0 4-1 4-4l10-26c2-5 4-8 6-8h9c4 0 6 2 6 4 0 1 0 3-1 4l-24 66c-1 2-1 5 0 7l24 65c0 2 1 3 1 4 0 3-2 4-6 4h-10c-1 0-3-3-5-8l-9-24c-2-4-3-6-5-6-2 0-3 2-5 6l-9 24c-2 6-4 8-6 8h-10c-3 0-4-1-4-4 0-1 0-2 1-4l23-65c1-2 1-5 0-7l-23-66z m-87 0c-1-2-1-3-1-4 0-2 2-4 4-4h11c1 0 3 3 5 8l10 27c1 2 2 3 5 3 2 0 3-1 4-4l10-26c2-5 4-8 5-8h9c4 0 6 2 6 4 0 1 0 3-1 4l-24 66c-1 2-1 5 0 7l24 65c1 2 1 3 1 4 0 3-2 4-6 4h-10c-1 0-2-3-4-8l-10-24c-1-4-3-6-4-6-2 0-4 2-5 6l-10 24c-2 6-3 8-5 8h-10c-3 0-5-1-5-4 0-1 0-2 1-4l23-65c1-2 1-5 1-7l-24-66z m173 0c0-2-1-3-1-4 0-2 2-4 5-4h10c2 0 4 3 6 8l9 27c1 2 3 3 5 3 2 0 3-1 4-4l10-26c2-5 4-8 6-8h9c4 0 6 2 6 4 0 1-1 3-1 4l-24 66c-1 2-1 5 0 7l24 65c0 2 0 3 0 4 0 3-2 4-5 4h-11c-1 0-2-3-4-8l-9-24c-2-4-3-6-5-6-2 0-4 2-5 6l-9 24c-2 6-4 8-6 8h-10c-3 0-4-1-4-4 0-1 0-2 0-4l24-65c1-2 1-5 0-7l-24-66z m-315-8c22 0 33 10 33 30 0 2-2 3-6 3h-7c-4 0-5-1-5-3 0-7-5-10-15-10-9 0-14 5-14 13v90c0 8 5 12 14 12 10 0 15-3 15-9 0-2 1-3 4-3h9c3 0 5 1 5 3 0 19-11 28-33 29-22-1-33-11-33-32v-90c0-22 11-33 33-33z m-114-3h42c12 0 18 10 18 29v29c0 5-1 8-2 11 0 3-2 6-4 9v4c4 4 6 9 6 17l0 32c0 3-2 6-5 11-3 4-8 8-17 11-2 1-5 1-10 1h-28c-4 0-6-2-6-5l0-141c0-5 2-8 6-8z m13 126c0 5 2 8 4 8h11c8 0 12-5 12-15v-15c0-10-4-15-12-15h-11c-3 0-4 3-4 9v28z m0-64c0 6 2 9 4 9h11c8 0 12-3 12-9v-33c0-6-4-10-12-10h-11c-2 0-4 3-4 7v36z m180 10h15c6 0 9 3 9 7v11c0 5-3 7-9 7h-14c-6 0-9-2-9-6l0-11c0-5 3-8 8-8z" horiz-adv-x="1000" />

<glyph glyph-name="font_precio-gasolina" unicode="&#xe81a;" d="M838 586l-71 71v67c0 30-24 55-54 55h-426c-30 0-54-25-54-55v-806h534v232c43 17 73 58 73 107v128c9 9 15 21 15 34v35h0v90c0 16-6 31-17 42z m-303-503c-6-2-10-7-10-13v-34c0-7-6-13-14-13h-23c-8 0-14 6-14 13v34c0 6-4 12-11 13-28 5-54 17-76 32-5 4-7 11-4 17l15 30c4 7 13 9 20 5 26-19 60-31 84-31 20 0 33 8 33 22 0 45-140 18-140 112 0 39 26 67 69 78 6 1 10 6 10 13v31c0 8 6 14 14 14h23c8 0 14-6 14-14v-30c0-7 4-12 11-14 22-3 43-11 61-20 6-3 9-11 6-18l-15-31c-3-7-12-10-18-6-26 13-55 22-74 22-17 0-28-6-28-18 0-45 140-19 140-115 0-44-30-70-73-79z m132 418h-334v154h334v-154z m139-244c0-29-15-55-39-69v220c5-18 20-31 39-33v-118z m16 273l-26-10c-14-5-25-16-29-30v119l47-46c5-5 8-12 8-19v-14z" horiz-adv-x="1000" />

<glyph glyph-name="font_puntos" unicode="&#xe81b;" d="M756 642c-92 141-280 182-421 91-141-91-182-279-90-420l254-394c1 0 1 0 1 0 0 0 0 0 1 0l255 394c62 97 67 226 0 329z m-256-292c-68 0-124 55-124 124s56 123 124 123 124-55 124-123c0-69-55-124-124-124z" horiz-adv-x="1000" />

<glyph glyph-name="font_rastreo-continuo" unicode="&#xe81c;" d="M804 593c-17-17-45-17-62 0-64 65-150 101-242 101-189 0-343-154-343-343 0-1 0-1 0-1h27c19 0 27-14 18-30l-71-122c-10-17-25-17-35 0l-70 122c-10 16-2 30 17 30h26c0 0 0 0 0 1 0 58 12 114 34 167 22 51 53 97 93 137 39 40 85 71 136 92 54 23 110 34 168 34 58 0 114-11 167-34 52-21 98-52 137-92 17-17 17-44 0-62z m171-214l-71 123c-10 16-25 16-35 0l-70-123c-10-16-2-30 17-29h27c0-190-154-343-343-343-91 0-178 36-242 100-17 17-45 17-62 0-17-17-17-45 0-62 39-39 85-70 137-92 53-22 109-34 167-34 58 0 114 12 168 34 51 22 97 53 136 93 40 39 71 85 93 136 22 53 33 109 34 163h26c19 4 27 18 18 34z" horiz-adv-x="1000" />

<glyph glyph-name="font_retroceder" unicode="&#xe81d;" d="M932 374v-48c0-15-12-26-27-26h-481l133-133c11-11 11-29 0-40l-37-36c-11-11-29-11-40 0l-239 239c-11 11-11 29 0 40l240 239c10 11 28 11 39 0l37-36c11-11 11-29 0-40l-133-133h481c15 0 27-11 27-26z" horiz-adv-x="1000" />

<glyph glyph-name="font_seleccionar" unicode="&#xe81e;" d="M897 469l-378-379c-5-5-12-7-19-7-6 0-13 2-18 7l-180 180c-11 11-11 27 0 37l34 35c10 10 27 10 37 0l127-128 326 326c10 10 27 10 37 0l34-34c11-11 11-27 0-37z" horiz-adv-x="1000" />

<glyph glyph-name="font_siguiente" unicode="&#xe81f;" d="M760 330l-239-239c-11-11-29-11-40 0l-37 36c-11 11-11 29 0 40l133 133h-481c-15 0-27 11-27 26v48c0 15 12 26 27 26h481l-133 133c-11 11-11 29 0 40l37 36c11 11 29 11 40 0l239-239c11-11 11-29 0-40z" horiz-adv-x="1000" />

<glyph glyph-name="font_ultima-posicion" unicode="&#xe820;" d="M291 394h-89c-2-15-3-29-3-44 0-15 1-29 3-44h89c24 0 44 20 44 44 0 24-20 44-44 44z m209-209c-24 0-44-20-44-44v-89c15-2 29-3 44-3 15 0 29 1 44 3v89c0 24-20 44-44 44z m-44 463v-89c0-24 20-44 44-44 24 0 44 20 44 44v89c-15 2-29 3-44 3-15 0-29-1-44-3z m209-298c0-24 20-44 44-44h89c2 15 3 29 3 44 0 15-1 29-3 44h-89c-24 0-44-20-44-44z m-165-33c18 0 33 15 33 33s-15 33-33 33c-18 0-33-15-33-33s15-33 33-33z m397 201c-22 51-53 97-92 137-40 39-86 70-137 92-53 22-110 34-168 34-58 0-114-12-168-34-51-22-97-53-136-92-40-40-71-86-93-137-22-53-34-110-34-168 0-58 12-114 34-168 22-51 53-97 93-136 39-40 85-71 136-93 54-22 110-34 168-34 58 0 115 12 168 34 51 22 97 53 137 93 39 39 70 85 92 136 22 54 34 110 34 168 0 58-12 115-34 168z m-397-511c-189 0-343 154-343 343 0 189 154 343 343 343 189 0 343-154 343-343 0-189-154-343-343-343z" horiz-adv-x="1000" />

<glyph glyph-name="font_vehiculos---modelo" unicode="&#xe821;" d="M883 431h-38c-11 0-21 7-25 17l-35 88c-10 26-41 54-68 62 0 0-71 19-217 19-146 0-217-19-217-19-27-8-58-36-68-62l-34-88c-4-10-15-17-26-17h-38c-28 0-50-25-47-53 3-23 25-40 49-40h0c9 0 15-9 12-17l-8-21c-10-26-19-70-19-98v-115c0-1 0-1 0-1l0-103c0-33 27-61 60-62 34-1 62 27 62 60v5c0 16 13 29 29 29h490c16 0 29-13 29-29v0c0-31 23-59 55-62 36-3 66 25 66 60v95c1 3 1 5 1 8v115c0 28-9 72-19 98l-8 21c-3 8 3 17 12 17h0c24 0 46 16 49 40 4 28-19 53-47 53z m-661-61l48 130c4 9 14 16 24 16h412c10 0 20-7 24-16l48-129c3-9-2-16-11-16h-534c-9 0-14 7-11 15z m63-224l-77 10c-18 3-33 19-33 37v35c0 18 15 31 33 28l20-2c32-5 57-33 57-64v-44z m364-84c-100-5-198-5-298 0-14 1-25 13-24 26 3 9 4 14 7 23 1 13 13 23 27 22 93-6 186-6 280 0 13 1 25-9 26-22 2-9 3-14 6-23 1-13-10-25-24-26z m66 128c0 31 25 59 57 64l20 2c18 3 33-10 33-28v-35c0-18-15-34-33-37l-77-10v44z" horiz-adv-x="1000" />

<glyph glyph-name="font_velocidad" unicode="&#xe822;" d="M628 121h-256c-21 0-39-17-39-38s18-39 39-39h256c21 0 39 17 39 39s-18 38-39 38z m302 239c-1 55-12 108-33 158-22 51-53 97-92 137-40 39-86 70-137 92-53 22-110 34-168 34-58 0-114-12-168-34-49-21-93-51-132-88-2-1-4-3-5-5-2-1-4-3-5-5-37-39-66-83-87-131-21-51-32-104-33-159-1-2-1-5-1-8 0-3 0-6 1-9 0-44 8-86 21-127 6-18 23-30 42-30 30 0 50 29 41 58-7 22-12 45-15 69l69 0c21 0 39 17 39 38s-17 39-39 39l-69 0c7 65 33 125 72 174l49-49c15-15 40-15 55 0 15 15 15 40 0 55l-49 49c49 39 110 66 176 73v-70c0-21 17-38 38-38s39 17 39 38v70c65-7 126-33 175-73l-50-50c-15-15-15-39 0-54s39-15 54 0l50 50c40-49 66-109 73-175l-69 0c-21 0-38-17-38-38s17-39 38-39l69 0c-2-24-7-47-15-69-9-29 11-58 41-58 19 0 36 12 42 30 13 40 20 82 21 126 1 3 2 6 2 9 0 3-1 7-2 10z m-463-78c15-6 33 1 39 16l70 179c4 10 0 22-10 26h0c-10 5-22 0-27-9l-86-172c-7-15-1-33 14-40h0z" horiz-adv-x="1000" />
</font>
</defs>
</svg>
